<svg width="32" height="33" viewBox="0 0 32 33" fill="none" xmlns="http://www.w3.org/2000/svg">
<path d="M6.20495 13.3729L2.57495 16.8939L6.29495 20.5019C9.00995 23.1369 12.579 24.4549 16.15 24.4549C19.718 24.4549 23.2869 23.1369 26.0049 20.5019L29.6329 16.9809L25.913 13.3729C23.195 10.7389 19.627 9.42188 16.058 9.42188C12.489 9.42188 8.92095 10.7389 6.20495 13.3729ZM6.93995 19.8739L3.86695 16.8939L6.84995 14.0009C11.927 9.07688 20.1909 9.07688 25.268 14.0009L28.34 16.9809L25.358 19.8739C22.819 22.3359 19.484 23.5669 16.15 23.5669C12.815 23.5669 9.47795 22.3359 6.93995 19.8739Z" fill="white"/>
<path d="M12.595 15.5612C12.5912 15.6127 12.5981 15.6645 12.6153 15.7132C12.6324 15.762 12.6594 15.8067 12.6946 15.8446C12.7298 15.8824 12.7724 15.9126 12.8198 15.9333C12.8672 15.9539 12.9183 15.9646 12.97 15.9646C13.0217 15.9646 13.0728 15.9539 13.1202 15.9333C13.1676 15.9126 13.2102 15.8824 13.2454 15.8446C13.2806 15.8067 13.3076 15.762 13.3247 15.7132C13.3419 15.6645 13.3488 15.6127 13.345 15.5612C13.345 14.5252 14.189 13.6832 15.226 13.6832C15.3257 13.6832 15.4214 13.6435 15.4919 13.573C15.5624 13.5025 15.602 13.4069 15.602 13.3072C15.602 13.2074 15.5624 13.1118 15.4919 13.0413C15.4214 12.9708 15.3257 12.9312 15.226 12.9312C14.5285 12.9317 13.8598 13.2089 13.3665 13.702C12.8733 14.1951 12.5958 14.8637 12.595 15.5612Z" fill="white"/>
<path d="M10.0911 16.1848C10.0911 19.0868 12.7891 21.4458 16.1041 21.4458C19.4191 21.4458 22.1171 19.0868 22.1171 16.1848C22.1171 13.2858 19.4211 10.9238 16.1041 10.9238C12.7891 10.9238 10.0911 13.2858 10.0911 16.1848ZM11.0161 16.1848C11.0161 13.7318 13.2981 11.7328 16.1041 11.7328C18.9091 11.7328 21.1921 13.7318 21.1921 16.1848C21.1921 18.6408 18.9091 20.6378 16.1041 20.6378C13.2981 20.6378 11.0161 18.6408 11.0161 16.1848Z" fill="white"/>
</svg>
