<svg width="20" height="17" viewBox="0 0 20 17" fill="none" xmlns="http://www.w3.org/2000/svg">
<path d="M18.2949 0.150081C18.2949 0.150081 20.1451 -0.585778 19.9909 1.20131C19.9395 1.93717 19.477 4.5127 19.1172 7.2984L17.8838 15.5506C17.8838 15.5506 17.781 16.7595 16.8559 16.9697C15.9308 17.1799 14.5432 16.2339 14.2862 16.0236C14.0807 15.8659 10.4318 13.5007 9.147 12.3443C8.7872 12.0289 8.3761 11.3982 9.1983 10.6623L14.5946 5.4062C15.2113 4.7755 15.8281 3.3038 13.2584 5.0909L6.0634 10.0842C6.0634 10.0842 5.2411 10.6098 3.69934 10.1368L0.358771 9.0855C0.358771 9.0855 -0.874659 8.2971 1.23245 7.5087C6.3718 5.0383 12.6931 2.5153 18.2949 0.150081Z" fill="white"/>
</svg>
