<svg width="32" height="32" viewBox="0 0 32 32" fill="none" xmlns="http://www.w3.org/2000/svg">
<g clip-path="url(#clip0_567_381)">
<path fill-rule="evenodd" clip-rule="evenodd" d="M20.848 11.348C20.848 12.6338 20.3373 13.8669 19.4281 14.7761C18.5189 15.6852 17.2858 16.196 16 16.196C14.7143 16.196 13.4811 15.6852 12.572 14.7761C11.6628 13.8669 11.152 12.6338 11.152 11.348C11.152 10.0622 11.6628 8.82912 12.572 7.91995C13.4811 7.01077 14.7143 6.5 16 6.5C17.2858 6.5 18.5189 7.01077 19.4281 7.91995C20.3373 8.82912 20.848 10.0622 20.848 11.348ZM19.226 19.155H12.775C11.8197 19.1549 10.8736 19.3429 9.99093 19.7084C9.10823 20.0739 8.30617 20.6096 7.63053 21.2851C6.95489 21.9605 6.41891 22.7625 6.05318 23.6451C5.68746 24.5276 5.49915 25.4736 5.49902 26.429H26.499C26.499 24.5 25.7328 22.65 24.3689 21.2859C23.0049 19.9217 21.155 19.1553 19.226 19.155Z" stroke="white"/>
</g>
<defs>
<clipPath id="clip0_567_381">
<rect width="32" height="32" fill="white"/>
</clipPath>
</defs>
</svg>
